<svg id="Layer_2" data-name="Layer 2" xmlns="http://www.w3.org/2000/svg" viewBox="0 0 566.93 566.93"><defs><style>.cls-1{fill:#f05a29;}.cls-2{fill:#511a51;}</style></defs><path class="cls-1" d="M358.91,306.3H222.61V170h136.3Zm-134.17-2.14h132v-132h-132Z"/><path class="cls-1" d="M230.87,318.19,204.52,184.46,338.25,158.1,364.6,291.84ZM207,186.14l25.52,129.54,129.54-25.53L336.57,160.61Z"/><path class="cls-1" d="M349.6,323.15H213.3V186.84H349.6ZM215.43,321h132V189h-132Z"/><path class="cls-1" d="M317.36,265.13l-.81,0c-.42,0-10.51-.4-15.59-6.9s-3-16.38-2.91-16.8l.17-.79.81,0c.43,0,10.52.39,15.59,6.89s3,16.38,2.91,16.8ZM299.8,242.65c-.36,2.42-1,9.6,2.69,14.37s10.86,5.85,13.29,6.08c.36-2.41,1-9.6-2.69-14.36S302.24,242.88,299.8,242.65Z"/><path class="cls-1" d="M255.75,223.08l-.63-.52c-.32-.27-8.05-6.76-8.07-15s7.7-14.77,8-15l.61-.52.63.52c.33.27,8.05,6.76,8.07,15s-7.7,14.77-8,15Zm-.05-28.53c-1.77,1.69-6.71,6.94-6.7,13s5,11.29,6.74,13c1.77-1.69,6.72-6.94,6.71-13S257.48,196.23,255.7,194.55Z"/><path class="cls-1" d="M324.23,234.33l-.31-.75c-.16-.39-3.94-9.75-.09-17.05S337.56,207.09,338,207l.78-.17.31.75c.17.39,3.94,9.76.09,17s-13.73,9.44-14.14,9.53Zm13.33-25.21c-2.35.66-9.18,3-12,8.32s-.9,12.3-.12,14.62c2.35-.66,9.18-3,12-8.33S338.34,211.43,337.56,209.12Z"/><path class="cls-1" d="M246.8,275a26.49,26.49,0,0,1-11.12-2.8l-.71-.38.24-.77c.12-.41,3.2-10,10.83-13.17s16.59,1.51,17,1.71l.72.38-.24.77c-.13.41-3.21,10-10.83,13.17A15.3,15.3,0,0,1,246.8,275Zm-9.46-4.16c2.24,1,9,3.58,14.57,1.27s8.55-8.88,9.43-11.16c-2.23-1-9-3.58-14.56-1.27S238.22,268.58,237.34,270.86Z"/><path class="cls-1" d="M261.33,252.05l-.25-.77c-.13-.4-3.22-10,1.15-17s14.37-8.42,14.8-8.47l.8-.11.25.77c.13.4,3.22,10-1.15,17s-14.37,8.42-14.8,8.47Zm15.13-24.18c-2.39.49-9.37,2.3-12.58,7.43s-1.79,12.21-1.18,14.57c2.39-.49,9.37-2.3,12.58-7.43S277.07,230.24,276.46,227.87Z"/><path class="cls-1" d="M279.3,142.93c-3.51,0-8.25-.65-11.88-3.57-6.43-5.16-6.67-15.26-6.68-15.69v-.8l.79-.16c.42-.09,10.33-2,16.76,3.14S285,141.11,285,141.54v.81l-.79.16A26.58,26.58,0,0,1,279.3,142.93Zm-16.56-18.45c.2,2.43,1.18,9.58,5.9,13.37s11.9,3.22,14.32,2.89c-.2-2.44-1.18-9.58-5.9-13.37S265.16,124.15,262.74,124.48Z"/><path class="cls-1" d="M291.72,216.7c-1.3,0-2.16-.09-2.27-.1l-.81-.09-.06-.81c0-.42-.7-10.5,5.24-16.22s16-4.7,16.4-4.65l.81.09.06.8c0,.43.7,10.5-5.24,16.23C301.56,216.09,295.12,216.7,291.72,216.7Zm-1.22-2c2.44.11,9.65,0,14-4.17s4.69-11.4,4.67-13.85c-2.44-.11-9.65,0-14,4.17S290.48,212.28,290.5,214.72Z"/><path class="cls-1" d="M306.18,146.17l-.06-.81-.8-.08c-.43-.05-10.47-1.09-16.41,4.64s-5.26,15.8-5.23,16.23l.06.8.8.09a20.33,20.33,0,0,0,2.27.1c3.4,0,9.84-.6,14.14-4.74C306.88,156.67,306.21,146.6,306.18,146.17Zm-5.91,15.53c-5.68,5.48-15.62,4.38-15.62,4.38s-.74-10,4.94-15.46,15.62-4.38,15.62-4.38S306,156.22,300.27,161.7Z"/><path class="cls-1" d="M289.59,150.62c-5.68,5.48-4.94,15.46-4.94,15.46s9.94,1.1,15.62-4.38,4.94-15.46,4.94-15.46S295.26,145.14,289.59,150.62Zm10,10.38c-4.36,4.2-11.57,4.27-14,4.17,0-2.45.32-9.65,4.67-13.85s11.57-4.28,14-4.17C304.29,149.59,304,156.8,299.6,161Z"/><path class="cls-1" d="M287.51,306.63c-1.68-4.26-1.93-8-2.18-12-.14-2.15-.29-4.38-.67-6.75-1.64-10.21,0-20.58,1.67-30.61.74-4.53,1.5-9.21,1.94-13.81,1.31-13.66-.12-27.57-1.51-41l-1.06-10.34c-.05-.5-3.39-37.37-3.41-37.59-.73-11,4.8-45,5.23-46.07l1.79.76c-.23.94-5.81,34.28-5.08,45.18,0,.58,3.38,37.28,3.4,37.52l1.07,10.34c1.39,13.54,2.83,27.54,1.5,41.4-.44,4.66-1.21,9.37-1.95,13.93-1.61,9.88-3.26,20.09-1.67,30,.39,2.47.54,4.74.68,6.94.25,3.84.49,7.47,2.06,11.44Z"/><path class="cls-1" d="M310.07,306.57l-1.93-.19c.21-2.06-.36-5-.9-7.88a33.88,33.88,0,0,1-.94-7.86c.31-4.85,2.37-9.3,4.36-13.6.66-1.43,1.35-2.91,1.95-4.37a110.74,110.74,0,0,0,4.86-16.48c.53-2.22,1.06-4.44,1.64-6.65.35-1.29.64-2.42.9-3.43a63.67,63.67,0,0,1,4.62-13.36l1.77.81a61.88,61.88,0,0,0-4.51,13c-.26,1-.55,2.15-.9,3.45-.58,2.19-1.1,4.39-1.63,6.6a112.86,112.86,0,0,1-5,16.78c-.61,1.49-1.31,3-2,4.43-1.91,4.14-3.9,8.42-4.19,12.92a34.11,34.11,0,0,0,.91,7.37C309.72,301.13,310.31,304.23,310.07,306.57Z"/><path class="cls-1" d="M269.65,322c-8.37-5-9.5-12.37-10.25-17.26a27.57,27.57,0,0,0-.55-3,29.42,29.42,0,0,1-1.34-6.73,29.86,29.86,0,0,1,.3-4.75c.36-3.05.72-6.2,1.24-9.31.31-1.87.67-3.74,1-5.62,1.13-5.8,2.29-11.8,1.71-17.68-.18-1.86-.54-3.75-.89-5.58a51.3,51.3,0,0,1-1-7.18c0-.92,0-1.85,0-2.79,0-2.67,0-5.19-1.06-7.38a16.16,16.16,0,0,0-1.35-2.14,17.36,17.36,0,0,1-1.57-2.53c-1.45-3.07-1.06-6.61-.75-9.45l1.93.21c-.28,2.6-.64,5.84.57,8.41a16.52,16.52,0,0,0,1.4,2.24,18.07,18.07,0,0,1,1.51,2.4c1.28,2.6,1.27,5.47,1.27,8.25,0,.9,0,1.8,0,2.69a48.82,48.82,0,0,0,1,6.9c.35,1.87.73,3.81.92,5.76.6,6.16-.59,12.3-1.74,18.24-.36,1.86-.72,3.71-1,5.57-.5,3.06-.87,6.19-1.22,9.22a28.8,28.8,0,0,0-.29,4.44,27.89,27.89,0,0,0,1.27,6.28,29.61,29.61,0,0,1,.6,3.19c.73,4.81,1.74,11.39,9.32,15.88Z"/><path class="cls-2" d="M97.84,382.38l-7.75-10.59L86.19,376v6.43H80.1v-26h6.09v11.82l11.22-11.82h7.06L94.33,367.22l10.83,15.16Z"/><path class="cls-2" d="M131,377.33H118.47l-2.12,5.05h-6.29l11.72-26h6.29l11.53,26h-6.52Zm-2-4.72-4.24-10.11-4.28,10.11Z"/><path class="cls-2" d="M164.12,356.37v5h-8.25v21h-6.09v-21h-8.21v-5Z"/><path class="cls-2" d="M188.61,382.38,184.33,375h-6.21v7.43H172v-26h11.72c7.06,0,11.07,3.27,11.07,9,0,4-1.78,6.91-5,8.4l5.74,8.58Zm-10.49-12.33h5.63c3.36,0,5.28-1.49,5.28-4.46s-1.92-4.35-5.28-4.35h-5.63Z"/><path class="cls-2" d="M210.67,356.37v26h-6.09v-26Z"/><path class="cls-2" d="M226.83,356.37l13.11,16.72V356.37h5.78v26h-5.55L227.1,365.7v16.68h-5.82v-26Z"/><path class="cls-2" d="M278.58,356.37v20.88h11.56v5.13H272.49v-26Z"/><path class="cls-2" d="M310.16,377.51a5.6,5.6,0,0,0,6-6V356.37h6.1V371.5c0,6.87-4.67,11.14-12.11,11.14s-12.26-4.27-12.26-11.14V356.37H304V371.5C304,375.25,306.53,377.51,310.16,377.51Zm-.93-26.75A2.76,2.76,0,1,1,306.5,348,2.65,2.65,0,0,1,309.23,350.76Zm7.25,0a2.76,2.76,0,1,1-2.74-2.75A2.65,2.65,0,0,1,316.48,350.76Z"/><path class="cls-2" d="M344.86,361.28a8,8,0,1,0,0,16,10.64,10.64,0,0,0,7-3l3.59,3.75a16.11,16.11,0,0,1-10.91,4.64c-8.06,0-14.15-5.76-14.15-13.3s6.2-13.15,14.38-13.15a15.65,15.65,0,0,1,10.64,4.31l-3.55,4.16A9.92,9.92,0,0,0,344.86,361.28Z"/><path class="cls-2" d="M381.46,382.38l-7.75-10.59L369.82,376v6.43h-6.1v-26h6.1v11.82L381,356.37h7L378,367.22l10.83,15.16Z"/><path class="cls-2" d="M417.32,356.37v4.87H402.86v5.65h13v4.87h-13v5.75h14.89v4.87h-21v-26Z"/><path class="cls-2" d="M443.74,382.38,439.46,375h-6.21v7.43h-6.09v-26h11.72c7.05,0,11.06,3.27,11.06,9,0,4-1.77,6.91-5.05,8.4l5.75,8.58Zm-10.49-12.33h5.63c3.35,0,5.28-1.49,5.28-4.46s-1.93-4.35-5.28-4.35h-5.63Z"/><path class="cls-2" d="M479.6,356.37v5h-8.25v21h-6.09v-21h-8.21v-5Z"/><path class="cls-1" d="M140.27,423.39c0,.65-.54,1.36-1.71,1.92-2.68,1.27-12.69,4.05-20.16,4.52-.92.09-1.8.09-2.63.09-1.07,0-5.22-.09-5.22-1.79a.92.92,0,0,1,.92-.84.57.57,0,0,1,.59.37c.34.94,2,1,2.88,1h0c.63,0,.68-.24.78-.66l1.32-4.18a1.56,1.56,0,0,0,0-.43c0-.42-.25-.51-.74-.51l-.14,0h-.78a7.06,7.06,0,0,1-2.79-.37,1.07,1.07,0,0,1-.29-.75.92.92,0,0,1,.2-.62c.68-.65,4.19-2.11,5.17-2.54a4.34,4.34,0,0,0,2.2-1.92c1.07-1.79,2-3.76,3-5.6a69.69,69.69,0,0,1,7.42-11.61,1.5,1.5,0,0,1,.83-.38.54.54,0,0,1,.49.29.41.41,0,0,1,.1.32,2.9,2.9,0,0,1-.59,1.32c-.24.52-1.32,2.73-1.56,3a.58.58,0,0,1-.39.14,2.54,2.54,0,0,1-.54-.09,78.7,78.7,0,0,0-7.07,12.41.6.6,0,0,0-.1.38c0,.14.1.18.24.18a4.07,4.07,0,0,0,.78-.18c6.05-1.93,24.16-9.08,27.38-13.31a2.46,2.46,0,0,0,.59-1.55c0-4.09-13.18-4.61-16.55-4.61-7.76,0-22.64,1.55-27,7.57a3.81,3.81,0,0,0-.78,2.07c0,.8.44,1.6,1.76,2.21a.7.7,0,0,1,.44.61.9.9,0,0,1-.88.85.59.59,0,0,1-.39-.1,4.33,4.33,0,0,1-2.1-3.62,5.17,5.17,0,0,1,1.32-3.29c4.44-5.36,16.4-7.76,27-7.76,10,0,18.74,2.17,18.74,6a4.28,4.28,0,0,1-1.41,2.87c-5,5.22-22.06,11.24-29.34,14.06a2.59,2.59,0,0,0-1.51,2.12c0,.18.15.23.49.23h.24l.59,0h.24c2.25-.14,4.64-.23,7-.23a71.74,71.74,0,0,1,9.57.56C139.44,421.79,140.27,422.54,140.27,423.39Zm-25.43-1.74s.15,0,.39,0,1.08,0,1.76-.09,1-.14,1.12-.85c0-.09,0-.14,0-.18a.17.17,0,0,0-.19-.19,2.48,2.48,0,0,0-.74.23,3.52,3.52,0,0,1-.48.14A8.37,8.37,0,0,0,114.84,421.65Zm12.06.61a39.67,39.67,0,0,0-6.88.47c-1,.23-1.13.23-1.42,1.13-.44,1.36-1,2.77-1.32,4.18v.28c0,.28.1.33.39.33s.59,0,1.08-.09a76.54,76.54,0,0,0,16.79-3.43c2-.76,3.27-1.27,3.27-1.65s-1-.61-3.32-.85C133.44,422.45,130.07,422.26,126.9,422.26Z"/><path class="cls-1" d="M161.45,415.49a.49.49,0,0,1,.49.47c0,.09-.05.19-.2.33-3.41,3.19-11.22,8.08-14.69,8.08a2.24,2.24,0,0,1-2.34-2.3c0-3,5.56-10.72,9.27-10.72a1,1,0,0,1,1.07,1c0,2.87-5.56,6.54-8,7.81a1.11,1.11,0,0,0-.64,1.08,1.36,1.36,0,0,0,0,.38,1.14,1.14,0,0,0,1.31,1.27c3.37,0,11.91-6.07,13.43-7.34A.36.36,0,0,1,161.45,415.49Zm-8.35-2.26a.13.13,0,0,0-.14-.14c-.3,0-1.08.52-2.3,1.6a21.14,21.14,0,0,0-3,3.57.81.81,0,0,0-.1.24.19.19,0,0,0,.1,0,6.45,6.45,0,0,0,1.31-.75l2.49-2.21A5.63,5.63,0,0,0,153.1,413.23Z"/><path class="cls-1" d="M167.74,411.44a1.57,1.57,0,0,1,1.13.52,4.85,4.85,0,0,0,3.46,1.88,3.69,3.69,0,0,0,2.49-1.08.44.44,0,0,1,.34-.09.73.73,0,0,1,.69.66.61.61,0,0,1-.2.47,5.93,5.93,0,0,1-3.51,1.22,6.07,6.07,0,0,1-4-1.74.63.63,0,0,0-.39-.19c-.64,0-1.32.8-1.62,1.18-2.88,3.1-7.17,10.2-7.41,10.39a1,1,0,0,1-.59.23c-.34,0-.63-.28-.63-.8a2.33,2.33,0,0,1,.19-.89c2.54-7.2,2.83-7.43,6.15-14.48.59-1.27,1.12-1.65,1.46-1.65s.64.47.64.75c0,.1,0,.15,0,.19a6.91,6.91,0,0,1-1.22,2.12,87.51,87.51,0,0,0-3.85,8.79l-.05.05a.21.21,0,0,0,.05.14s.14-.05.24-.24l1.85-2.72a19.76,19.76,0,0,1,3.66-4.24A2.19,2.19,0,0,1,167.74,411.44Z"/><path class="cls-1" d="M202.35,404.72c-1.56,2.59-2.59,4.42-3.08,5.41a96.83,96.83,0,0,0-5.37,18.29v.37a.91.91,0,0,0,.15.52.71.71,0,0,0,.49.42c.24.1.39.24.39.43,0,.47-.73.8-1.13.8a1.07,1.07,0,0,1-.92-.52,2.91,2.91,0,0,1-.44-1.88c0-.43.05-1,.1-1.6a74.17,74.17,0,0,1,2.24-8.6c.2-.62.34-1.18.49-1.7a.12.12,0,0,0,0-.09,6.9,6.9,0,0,0,.19-.71,1.72,1.72,0,0,0,.15-.61.26.26,0,0,0-.1-.19c-.1,0-.29.19-.53.52-.4.47-.74.94-1.08,1.41a69.79,69.79,0,0,1-8.39,9.4A5.62,5.62,0,0,1,182,428c-1.36,0-1.9-.94-2.14-2.11a8.65,8.65,0,0,1-.1-1.18,25.6,25.6,0,0,1,1.8-8.08.37.37,0,0,0,.05-.19c0-.1,0-.1-.05-.1a.16.16,0,0,0-.14.05c-.1.05-.34.24-.34.33l-5.57,5.55a3.35,3.35,0,0,1-1.9,1c-.64,0-1-.38-1.08-1.13,0-2,3.27-6.26,4.54-7.71,1.32-1.6,4.64-5.13,7-5.13a2.19,2.19,0,0,1,1.27.38,1.34,1.34,0,0,1,.44,1,2.33,2.33,0,0,1-.24.89c-1.81,2.82-4.3,10.3-4.3,13.3a2.88,2.88,0,0,0,.24,1.27.74.74,0,0,0,.74.47c.58,0,1.51-.56,2.78-1.69,4.54-4.47,11.13-12.36,13.86-18,.39-.94.78-1.83,1.22-2.68a124.68,124.68,0,0,0-20.89,1.83h-.15a.86.86,0,0,1-.63-.32,1.41,1.41,0,0,1-.15-.62v-.23c0-.28.2-.42.49-.52a172.66,172.66,0,0,1,22-1.6c1.08-2.3,5.57-10.62,7.81-10.62.35,0,.54.23.54.66a5,5,0,0,1-.93,2.39c-.29.57-.78,1.32-1.41,2.36-1,1.59-2.15,3.33-3.32,5.21a60.59,60.59,0,0,1,6.73.47c.3.05.49.19.49.47v.19a1.33,1.33,0,0,1-.14.57.67.67,0,0,1-.59.33,70,70,0,0,0-7.37-.52Zm-27.19,14.86a5.37,5.37,0,0,0-.83,1.55v.05c.59,0,8.84-8.94,9.76-10a.52.52,0,0,0,.15-.38c0-.18-.15-.28-.39-.33C181.55,410.5,176.33,417.74,175.16,419.58Z"/><path class="cls-1" d="M212,414.41a1.2,1.2,0,0,1,.93-.43,1.09,1.09,0,0,1,1.17,1v0a31.41,31.41,0,0,0-1.08,5.5c0,.47.1.75.3.8s.19,0,.29,0c2.2,0,7.66-4.46,9.32-5.83a.58.58,0,0,1,.34-.14.63.63,0,0,1,.59.61.48.48,0,0,1-.15.33c-1.61,1.41-7.46,6.16-10.1,6.59-.15,0-.29,0-.44,0-1.32,0-1.71-1.17-1.71-2.54a20.75,20.75,0,0,1,.64-4c-.15,0-.35.19-.44.28a69,69,0,0,1-7.52,7.71,2.12,2.12,0,0,1-1.22.47c-.78,0-1.27-.66-1.27-1.93,0-1.83,1.12-5.07,4.35-9.59.48-.75,1-1,1.36-1a.76.76,0,0,1,.73.8.87.87,0,0,1-.19.57,19.26,19.26,0,0,0-4.2,7,7.55,7.55,0,0,0-.49,2c0,.19.05.28.2.28s1.07-.75,2-1.74C207.66,419.06,210,416.43,212,414.41Z"/><path class="cls-1" d="M221,423.53h-.1c-.64,0-1.22-.38-1.22-.94s4.59-11.24,5-11.8a.46.46,0,0,1,.39-.19h.1c.44,0,.93.28.93.56a.16.16,0,0,1-.05.14c-1.17,2.68-2.83,5.6-3.71,8.33a.32.32,0,0,0,0,.18.18.18,0,0,0,0,.14h.05c.1,0,.2,0,.29-.23,1.42-1.79,5-6.25,6.93-7.24a2.79,2.79,0,0,1,1-.38h.1c2.39,0,.09,6.73,2.44,7a.78.78,0,0,0,.34.05c2.1-.19,6.93-2.83,8.54-3.77a.32.32,0,0,1,.24-.09h.1c.29,0,.44.23.44.52a.57.57,0,0,1-.19.42c-1.32,1-7.18,4.09-9.42,4.28H233c-2.59,0-2.68-2.87-2.68-4.8v-.42c0-.75,0-1.27-.25-1.32H230c-1.51.14-6.73,6.87-8.1,9.08A1.35,1.35,0,0,1,221,423.53Z"/><path class="cls-1" d="M250.37,421.08a.51.51,0,0,0-.05.24.11.11,0,0,0,.09.09c.1,0,.25-.14.39-.23,2.45-1.79,7.72-5.5,10.65-6.35a.14.14,0,0,0,.09-.05c.25,0,.39.24.39.52a.75.75,0,0,1-.44.66c-3.71,1.69-11.81,7.19-13.22,9.92-2.44,4.61-6.4,13.59-10.69,16.92a1.78,1.78,0,0,1-1.17.47c-.74,0-1.37-.61-1.37-1.74a5.78,5.78,0,0,1,.63-2.35c5-10.39,11-13.54,12.11-15.93.05-.19,3.27-7.72,3.27-9.31,0-.19-.05-.29-.15-.29s-.34.19-.68.57c-2.54,3-6.49,7.57-9.52,10.06a3,3,0,0,1-1.8.8c-.78,0-1.37-.57-1.37-1.69a6.74,6.74,0,0,1,.83-2.92c1.51-3.1,7-10.06,10.88-10.06h.1c1.12,0,.83.42,2.59.47a.89.89,0,0,1,.93,1l-.05.29v.09A48.58,48.58,0,0,1,250.37,421.08ZM236.65,441c0,.14,0,.23.15.23.39,0,1.51-1.17,3-3.24a41.93,41.93,0,0,0,4.93-8.7.33.33,0,0,0,.05-.19.11.11,0,0,0-.1-.09c-.09,0-.34.23-.53.42-2.59,3.06-3.86,4.23-6,8.13A10.23,10.23,0,0,0,236.65,441ZM239,423c0,.24.1.33.25.33,1.8,0,10.69-11,10.69-11.33s-.3-.37-.64-.37h-.1c-2.48.14-7,5.31-8.2,7.28C239.58,421.08,239,422.4,239,423Z"/><path class="cls-1" d="M278.33,442.8c.54.14,1.12.14,1.51.24s.49.23.49.52c.05,0,.05,0,.05.09a.16.16,0,0,1-.05.14c-.05.42-.59.66-1.27.66a3,3,0,0,1-.88-.14,4.23,4.23,0,0,1-2-1.18,5.76,5.76,0,0,1-1.37-4.09,14.81,14.81,0,0,1,.35-2.91,35.62,35.62,0,0,1,1.31-4.33.16.16,0,0,0,0-.14c0-.05.05-.14.05-.19,0-.23-.19-.37-.49-.56a4.52,4.52,0,0,1-2.05-3.76,5.44,5.44,0,0,1,.15-1.27c1.27-6,10.84-13.87,13.76-16.5a2.09,2.09,0,0,0,.59-.94c.05-.38.05-.85.1-1.41l.14-1c.83-3.9,4.25-6.68,7.57-8a8.47,8.47,0,0,1,2.78-.66,2.78,2.78,0,0,1,.68.1,1.35,1.35,0,0,1,1.13,1.31,1.24,1.24,0,0,1-.05.43,4.67,4.67,0,0,1-1.37,2.11,103.41,103.41,0,0,1-8.88,7.57,1.34,1.34,0,0,0-.39.66,1.21,1.21,0,0,0-.05.42c0,1.65,1.32,4.19,1.85,5.13a.87.87,0,0,0,.39.33h.1a1.45,1.45,0,0,0,.59-.24c2.93-1.45,7.76-3.76,11.66-3.76a8.46,8.46,0,0,1,2,.24,1.33,1.33,0,0,1,.44.09,2.28,2.28,0,0,1,1.81,2.26,2.73,2.73,0,0,1-.05.61c-1.22,5.78-16.74,17.39-27.92,17.39h-.73c-1,0-1.46-.18-1.8-.18s-.54.14-.83.8a20.81,20.81,0,0,0-1.27,3.76,12.51,12.51,0,0,0-.25,2.35v.51C276.28,441.86,277.3,442.57,278.33,442.8Zm12.54-26.47v-.14a1.06,1.06,0,0,0-.14-.51c-.59-1.41-1.13-2.83-1.71-4.28-.15-.33-.25-.47-.44-.52h-.05c-.25,0-.59.33-1.12.75-2.79,2.26-10.84,9.69-11.86,14.62a6.64,6.64,0,0,0-.1,1,2.84,2.84,0,0,0,.68,1.93,1.76,1.76,0,0,0,.88.7h.1c.29,0,.49-.28.68-.61a40,40,0,0,1,12.69-12.5A.76.76,0,0,0,290.87,416.33Zm2.44.66V417c0,.89,2.49,3.76,3.27,4.47a1.09,1.09,0,0,1,.39.84v.14a.46.46,0,0,1-.44.38s-.09-.05-.14-.05a3.44,3.44,0,0,1-.49-.23c-1.22-.9-2.68-3.11-3.66-4.42a.79.79,0,0,0-.44-.38h-.1c-.24,0-.54.24-1,.52a37.58,37.58,0,0,0-11.67,11.61.75.75,0,0,0-.15.28v.1c0,.19.15.23.3.28a2.39,2.39,0,0,0,.63.09,7.32,7.32,0,0,0,1.07.05c10.69,0,25.53-11.38,26.51-16a1.51,1.51,0,0,0,.05-.47c0-.66-.39-1.13-1.22-1.32a4,4,0,0,0-1.13-.14,14.94,14.94,0,0,0-3.27.52C300.44,413.61,293.56,416,293.31,417ZM290,406.6a1.56,1.56,0,0,0-.05.43c0,.18.05.28.15.32a.4.4,0,0,0,.19,0l.93-.76c2.15-1.83,4.35-3.19,6.49-5.35a6.4,6.4,0,0,0,1.66-2.12c0-.14-.05-.28-.19-.28a2.17,2.17,0,0,0-.25-.05,9.06,9.06,0,0,0-2.63.85C293.22,401,290.77,403.31,290,406.6Z"/><path class="cls-1" d="M353.19,402.14h-.09c-1.52,0-4.2,1.92-5.42,3.43a30,30,0,0,1-4.44,5.31,2.82,2.82,0,0,1-1.62.66.47.47,0,0,1-.43-.47c0-.1.05-.14.05-.24.14-.8,1.26-2.39,4.24-5.31a7.76,7.76,0,0,0,2.15-3.9,3.67,3.67,0,0,0,.15-1c0-1-.44-1.74-1.42-1.83h-.2a5.3,5.3,0,0,0-2.14.61c-9.57,4.7-16.65,15.51-18.16,22.75a14.4,14.4,0,0,0-.34,2.73c0,2.49,1,4.19,3.22,4.37h.39a6.71,6.71,0,0,0,1.37-.14c6.63-1.31,18.2-11.66,20.94-14.76a.6.6,0,0,1,.48-.24h.15a.55.55,0,0,1,.59.52v.14a.87.87,0,0,1-.25.47c-2.63,3.25-14.93,14.2-21.72,15.52a10.63,10.63,0,0,1-1.61.14h-.49c-3-.24-4.58-2.63-4.58-6.11a15.84,15.84,0,0,1,.39-3.25c1.36-6.25,6.39-14.62,15.22-21.34,1.57-1.22,4.64-3,6.89-3h.34a.18.18,0,0,1,.14,0h.25a.18.18,0,0,0,.15,0c1.41.42,1.8,1.69,1.8,3a7.36,7.36,0,0,1-.15,1.51c0,.23,0,.47.25.47h.1a1.3,1.3,0,0,0,.43-.19,9.87,9.87,0,0,1,4.06-1.51H354a.81.81,0,0,1,.49.15.62.62,0,0,1,.34.65v.19a1,1,0,0,1-.44.71.44.44,0,0,1-.34.14H354c-.09,0-.14-.05-.24-.1A1.72,1.72,0,0,0,353.19,402.14Z"/><path class="cls-1" d="M347.87,421.32c0-3.25,3.17-7.34,6.15-8.7a.61.61,0,0,1,.29-.05h.05a.71.71,0,0,1,.69.76.56.56,0,0,1-.35.56c-3.8,2-5.37,5.36-5.37,7.29,0,.84.3,1.45.88,1.45h.1c2.34-.14,5.32-5.73,5.71-8.41a13.72,13.72,0,0,1-.39-2.59c0-.94.3-1.78,1.17-2H357c.93,0,1,1,1,1.78a6.45,6.45,0,0,1-.09,1.09,3.3,3.3,0,0,0-.05.7c0,2.16,2.1,3.48,4.54,3.48h.39a8,8,0,0,0,3.51-1.13l.05-.05c.34,0,.59.43.59.76a.44.44,0,0,1-.25.42,11,11,0,0,1-4.19,1.13h-.59a6.29,6.29,0,0,1-4-1.22c-.39-.33-.59-.57-.74-.57s-.24.38-.68,1.37c-.93,2.16-3.46,6.34-6.1,6.53a4.55,4.55,0,0,1-.73-.09A2.36,2.36,0,0,1,347.87,421.32Z"/><path class="cls-1" d="M363,423.9c-.68,0-1.07-.42-1.07-1.17a5.9,5.9,0,0,1,.87-2.73c1.66-3.2,5.23-7.76,8.74-9.26a3.17,3.17,0,0,1,1.37-.33c1.61,0,1.85,1.32,1.85,2.54a2.18,2.18,0,0,0-.05.52c0,.75.34.65.34,1.17a3.24,3.24,0,0,1-.14.8c-.59,2-1.27,3.06-1.47,5.64v.19c0,.66.35,1,.88,1,2.15,0,7.67-4.52,9.37-6.68a.46.46,0,0,1,.39-.19.48.48,0,0,1,.49.47.38.38,0,0,1-.1.33c-1.56,2.4-6.78,7.1-9.71,7.48a2.28,2.28,0,0,1-.58.05,2.05,2.05,0,0,1-2.25-1.88c0-.24-.05-.48-.05-.66a24.57,24.57,0,0,1,.74-3.95c0-.1-.06-.14-.1-.14a1,1,0,0,0-.54.33l-6,5A5.42,5.42,0,0,1,363,423.9Zm10-9.35a1.59,1.59,0,0,0,.34-1c0-.47-.05-1.6-.68-1.6a1.54,1.54,0,0,0-.69.24c-3,1.5-5.42,4.42-7.13,7.33a9.2,9.2,0,0,0-1.21,2.45.12.12,0,0,0,.14.14,7.46,7.46,0,0,0,2.25-1.46C368.42,418.73,370.66,416.62,373,414.55Z"/><path class="cls-1" d="M389.69,413.37c-1.8,0-4.19,2-5.56,4.09a7.24,7.24,0,0,0-1.32,3.39c0,.8.44,1.31,1.42,1.36h.24a6.68,6.68,0,0,0,1.76-.28c5-1.41,11.91-6.35,13-6.91a.72.72,0,0,1,.29-.1c.35.05.49.52.49.76,0,.09,0,.18-.05.18-.29.29-9.12,6.63-14.49,7.62a8.36,8.36,0,0,1-1.76.14,2.43,2.43,0,0,1-2.59-2.63,9.58,9.58,0,0,1,2.44-5.6c1.81-2.25,4.4-3.57,6.1-3.57h.25a.59.59,0,0,1,.29.05c.88.14,1.17.51,1.17.94a.94.94,0,0,1-.14.47.8.8,0,0,1-.64.37h-.1a1.19,1.19,0,0,1-.68-.28Z"/><path class="cls-1" d="M395.21,427.05c-.49,0-1-.28-1-.75a2.14,2.14,0,0,0,0-.23c1.41-4.42,7.91-17.26,10.3-21.73.78-1.41,1.66-2.77,2.54-4.13a2.05,2.05,0,0,1,1.41-1.08c.34,0,.64.23.69.75v.05a27.42,27.42,0,0,1-1.18,2.63c-.24.52-.39,1-1.07,1h-.29a1.26,1.26,0,0,0-.34.42c-2.93,5.36-5.62,10.86-8.16,16.45a8.09,8.09,0,0,0-.43,1v.05s0,0,.09,0h.05a1.9,1.9,0,0,0,.29-.37c1.08-1.32,2.15-2.64,3.37-3.91.64-.65,2.39-2.44,3.42-2.44h0c.92.09,1,.7,1,1.41-.09,1.13-.48,2.4-.48,3.34s.34,1.5,1.46,1.5a8.8,8.8,0,0,0,1-.09c4.14-.89,7.66-4.19,9.17-5.36.05-.1.15-.1.25-.1a.52.52,0,0,1,.48.47.81.81,0,0,1-.09.29c-1.08,1.17-6.2,5.87-10.74,6.11h-.34c-2.25,0-2.74-1.18-2.74-2.4s.34-2.21.34-2.73c0-.23,0-.32-.19-.32-1.42,0-6.44,6.58-7.86,9.49A1.11,1.11,0,0,1,395.21,427.05Z"/><path class="cls-1" d="M418.15,414a.88.88,0,0,1,.48-.18.92.92,0,0,1,.88.79c0,.24-.14.38-.44.66-1.66,1.7-3.07,4.61-3.07,6.44,0,.66.29,1.13,1,1.13a2.36,2.36,0,0,0,.74-.14c3.56-1,9.17-4.56,12.3-7.19a.34.34,0,0,1,.29-.1.54.54,0,0,1,.54.47.35.35,0,0,1-.05.24c-2.4,2.58-9.86,7.19-13,8.09a6.32,6.32,0,0,1-1.17.18,2.3,2.3,0,0,1-2.44-2.49C414.24,419.53,416.58,415.63,418.15,414Zm2.14-1.45h-.09a.23.23,0,0,1-.2-.24v-.19a5.29,5.29,0,0,1,1.42-2.82.44.44,0,0,1,.39-.19,1,1,0,0,1,.92.62.2.2,0,0,1,0,.14C422.39,410.5,421.22,412.48,420.29,412.53Z"/><path class="cls-1" d="M428.15,423.53h-.1c-.63,0-1.22-.38-1.22-.94s4.59-11.24,5-11.8a.45.45,0,0,1,.39-.19h.1c.44,0,.93.28.93.56a.16.16,0,0,1,0,.14c-1.18,2.68-2.84,5.6-3.71,8.33a.32.32,0,0,0,0,.18.18.18,0,0,0,0,.14h.05c.09,0,.19,0,.29-.23,1.41-1.79,5-6.25,6.93-7.24a2.75,2.75,0,0,1,1-.38h.1c2.39,0,.1,6.73,2.44,7a.83.83,0,0,0,.34.05c2.1-.19,6.93-2.83,8.55-3.77a.31.31,0,0,1,.24-.09h.1c.29,0,.44.23.44.52a.55.55,0,0,1-.2.42c-1.32,1-7.17,4.09-9.42,4.28h-.19c-2.59,0-2.69-2.87-2.69-4.8v-.42c0-.75,0-1.27-.24-1.32h-.1c-1.51.14-6.74,6.87-8.1,9.08A1.4,1.4,0,0,1,428.15,423.53Z"/><path class="cls-1" d="M457.53,421.08a.51.51,0,0,0,0,.24.11.11,0,0,0,.1.09c.1,0,.24-.14.39-.23,2.44-1.79,7.71-5.5,10.64-6.35a.15.15,0,0,0,.1-.05c.24,0,.39.24.39.52a.77.77,0,0,1-.44.66c-3.71,1.69-11.81,7.19-13.23,9.92-2.44,4.61-6.39,13.59-10.69,16.92a1.78,1.78,0,0,1-1.17.47c-.73,0-1.37-.61-1.37-1.74a5.66,5.66,0,0,1,.64-2.35c5-10.39,11-13.54,12.1-15.93.05-.19,3.27-7.72,3.27-9.31,0-.19,0-.29-.14-.29s-.34.19-.69.57c-2.54,3-6.49,7.57-9.51,10.06a3,3,0,0,1-1.81.8c-.78,0-1.37-.57-1.37-1.69a6.89,6.89,0,0,1,.83-2.92c1.52-3.1,7-10.06,10.89-10.06h.09c1.13,0,.83.42,2.59.47a.89.89,0,0,1,.93,1l0,.29v.09A48.58,48.58,0,0,1,457.53,421.08ZM443.81,441c0,.14.05.23.15.23.39,0,1.51-1.17,3-3.24a41.93,41.93,0,0,0,4.93-8.7.4.4,0,0,0,0-.19.1.1,0,0,0-.09-.09c-.1,0-.34.23-.54.42-2.59,3.06-3.86,4.23-6,8.13A10.12,10.12,0,0,0,443.81,441ZM446.16,423c0,.24.09.33.24.33,1.81,0,10.69-11,10.69-11.33s-.29-.37-.63-.37h-.1c-2.49.14-7,5.31-8.2,7.28C446.74,421.08,446.16,422.4,446.16,423Z"/><path class="cls-1" d="M286.81,117.47l-.47-.65c-.25-.35-6.06-8.61-4-16.59S293.6,87.92,294,87.74l.73-.34.47.65c.25.35,6.06,8.61,4,16.59s-11.21,12.31-11.6,12.49Zm7.25-27.58c-2.14,1.17-8.26,5-9.8,10.84s1.91,12.18,3.2,14.25c2.14-1.17,8.27-5,9.81-10.83S295.35,92,294.06,89.89Z"/></svg>